<?xml version="1.0" encoding="UTF-8" standalone="no"?>
<!DOCTYPE svg PUBLIC "-//W3C//DTD SVG 20010904//EN"
              "http://www.w3.org/TR/2001/REC-SVG-20010904/DTD/svg10.dtd">

<svg xmlns="http://www.w3.org/2000/svg"
     width="0.333333in" height="0.333333in"
     viewBox="0 0 24 24">
  <path id="copy"
        fill="#c761a6" stroke="#c761a6" stroke-width="0"
      fill-opacity="1"
        d="M 11.77,3.80
           C 11.30,4.35 11.77,4.94 12.28,4.70
             12.83,4.31 12.36,3.53 11.77,3.80 Z
           M 15.31,4.74
           C 14.01,5.41 14.44,6.94 15.54,7.06
             17.19,7.26 17.31,4.94 15.86,4.74
             15.62,4.70 15.50,4.74 15.31,4.74 Z
           M 12.83,10.12
           C 12.83,10.12 12.72,7.77 12.72,7.77
             12.83,6.94 13.38,7.02 12.91,5.96
             12.87,5.76 12.83,5.41 12.72,5.29
             12.52,5.14 11.42,5.25 11.42,5.25
             11.42,5.25 11.14,5.88 10.99,6.51
             10.71,7.49 11.34,7.38 11.34,8.67
             11.34,9.26 11.22,10.60 11.34,11.07
             11.34,11.07 11.69,11.07 11.69,11.07
             11.69,11.07 11.97,8.44 11.97,8.44
             12.24,8.67 12.48,10.12 12.48,10.12
             12.48,10.12 12.68,10.36 12.83,10.12 Z
           M 7.84,6.98
           C 9.06,7.61 9.73,6.55 9.22,5.88
             8.79,5.29 7.92,5.53 7.73,6.16
             7.61,6.47 7.73,6.71 7.84,6.98 Z
           M 15.62,15.86
           C 15.62,15.86 15.98,15.86 15.98,15.86
             15.98,15.86 16.64,18.92 16.64,18.92
             16.72,19.20 16.80,19.75 17.11,19.83
             17.66,19.98 17.66,19.24 17.66,18.92
             17.66,18.92 17.55,13.97 17.55,13.97
             17.55,13.62 17.55,13.27 17.70,12.95
             17.98,12.36 18.80,11.97 18.49,10.79
             18.49,10.79 17.66,8.75 17.66,8.75
             17.51,8.47 17.43,7.96 17.11,7.77
             16.88,7.65 15.39,7.61 15.07,7.65
             14.72,7.65 14.48,7.73 14.29,8.00
             14.13,8.20 13.93,8.83 13.81,9.10
             13.81,9.10 12.99,11.58 12.99,11.58
             12.72,12.83 13.42,13.11 13.85,14.05
             14.09,14.56 13.97,14.88 13.97,15.39
             13.97,15.39 13.93,20.38 13.93,20.38
             13.93,20.77 13.66,22.18 14.36,22.10
             14.88,22.07 14.91,20.89 14.99,20.49
             14.99,20.49 15.62,15.86 15.62,15.86 Z
           M 6.82,9.46
           C 6.86,10.09 6.51,10.60 6.67,11.26
             6.74,11.70 7.06,11.97 7.22,12.36
             7.41,12.80 7.41,13.15 7.41,13.62
             7.41,13.62 7.41,15.31 7.41,15.31
             7.41,15.31 7.29,17.12 7.29,17.12
             7.29,17.31 7.26,17.86 7.45,18.02
             7.73,18.18 7.92,17.63 7.96,17.43
             8.16,16.45 8.28,13.66 8.67,13.62
             8.94,14.37 9.34,16.41 9.34,16.41
             9.49,16.68 9.89,16.53 9.89,16.45
             9.89,16.45 9.89,12.36 9.89,12.36
             9.89,10.95 10.63,11.15 10.52,10.24
             10.48,9.73 9.89,8.12 9.46,7.89
             9.18,7.73 7.57,7.85 7.57,7.85
             7.57,7.85 7.26,8.44 6.82,9.46 Z" />
</svg>
